<?xml version="1.0" encoding="UTF-8" standalone="no"?>
<svg
   fill="none"
   height="120"
   viewBox="0 0 143 120"
   width="143"
   version="1.1"
   id="svg61"
   sodipodi:docname="quote-mark-1.svg"
   inkscape:version="1.1.2 (b8e25be8, 2022-02-05)"
   xmlns:inkscape="http://www.inkscape.org/namespaces/inkscape"
   xmlns:sodipodi="http://sodipodi.sourceforge.net/DTD/sodipodi-0.dtd"
   xmlns="http://www.w3.org/2000/svg"
   xmlns:svg="http://www.w3.org/2000/svg">
  <defs
     id="defs65" />
  <sodipodi:namedview
     id="namedview63"
     pagecolor="#ffffff"
     bordercolor="#666666"
     borderopacity="1.0"
     inkscape:pageshadow="2"
     inkscape:pageopacity="0.0"
     inkscape:pagecheckerboard="0"
     showgrid="false"
     inkscape:zoom="6.1916667"
     inkscape:cx="71.467026"
     inkscape:cy="60"
     inkscape:window-width="1312"
     inkscape:window-height="969"
     inkscape:window-x="0"
     inkscape:window-y="38"
     inkscape:window-maximized="0"
     inkscape:current-layer="g59" />
  <clipPath
     id="a">
    <path
       d="m0 0h143v120h-143z"
       id="path54" />
  </clipPath>
  <g
     clip-path="url(#a)"
     opacity=".3"
     id="g59">
    <path
       clip-rule="evenodd"
       d="m142.373 18.7419c-21.324 10.4122-31.986 22.6463-31.986 36.7028 9.089 1.0412 16.605 4.7288 22.547 11.0629 5.943 6.3341 8.915 13.6659 8.915 21.9957 0 8.8503-2.884 16.3127-8.652 22.3857-5.769 6.074-13.022 9.111-21.762 9.111-9.788 0-18.2649-3.948-25.4313-11.844-7.1663-7.896-10.7495-17.4835-10.7495-28.7634 0-33.8396 19.0518-60.3036 57.1558-79.3926zm-75.2544 0c-21.499 10.4122-32.2484 22.6463-32.2484 36.7028 9.2638 1.0412 16.8671 4.7288 22.8099 11.0629s8.9142 13.6659 8.9142 21.9957c0 8.8503-2.9277 16.3127-8.7831 22.3857-5.8555 6.074-13.1528 9.111-21.8922 9.111-9.7882 0-18.2217-3.948-25.3006-11.844-7.07898-7.896-10.6184-17.4835-10.6184-28.7634 0-33.8396 18.9643-60.3036 56.8935-79.3926z"
       fill="#2ec5ce"
       fill-rule="evenodd"
       id="path57" />
    <path
       style="fill:#a0a0a0;stroke:none;stroke-width:0.161507"
       d="M 33.755047,119.81575 C 27.442756,119.49216 21.84427,117.40528 16.312248,113.3138 14.573671,112.02795 10.547081,108.0895 9.1127225,106.27187 4.4079584,100.30995 1.5323249,93.503362 0.48120602,85.841184 -0.2244831,80.697033 0.07891599,72.373982 1.2230195,65.491252 5.1835751,41.665229 20.308236,21.591111 45.943043,6.1368599 49.868972,3.7700671 56.777467,0.01381876 56.905363,0.17648902 c 0.02844,0.0361746 2.145964,3.91772368 4.705606,8.62566438 2.559641,4.7079406 4.829416,8.8644336 5.043942,9.2366516 l 0.390048,0.676762 -2.714942,1.373775 C 51.264496,26.70057 42.028845,34.700933 37.834156,43.041324 c -1.84237,3.663224 -2.866807,7.512904 -2.965633,11.14441 l -0.03516,1.292059 0.874033,0.128416 c 8.451033,1.241659 15.001042,4.299561 20.481807,9.562028 5.479996,5.261727 8.618209,10.971679 9.897312,18.008075 0.458744,2.523561 0.497207,7.780398 0.0767,10.482449 -1.061877,6.823289 -3.686925,12.179559 -8.343561,17.024589 -6.494209,6.75695 -14.099813,9.64324 -24.064603,9.1324 z"
       id="path184" />
    <path
       style="fill:#a0a0a0;stroke:none;stroke-width:0.161507"
       d="m 109.25976,119.83017 c -6.60703,-0.39961 -12.236341,-2.54236 -17.923816,-6.82256 -1.942893,-1.46215 -6.094523,-5.71013 -7.766808,-7.94704 C 77.398094,96.805917 74.855801,87.636527 75.426564,75.692423 75.974189,64.232497 78.371257,54.654099 83.080629,45.107688 91.39488,28.253793 105.89512,14.436027 127.83311,2.4615417 c 2.90165,-1.58381714 4.47441,-2.33248172 4.60256,-2.19091034 0.0663,0.0732254 2.0277,3.73071454 4.35871,8.12775354 2.33101,4.3970391 4.52368,8.5177661 4.87261,9.1571721 l 0.63441,1.162557 -2.55043,1.292009 c -13.33125,6.753406 -22.53634,14.90873 -26.6985,23.65376 -1.69512,3.561594 -2.73569,7.777982 -2.74159,11.108894 l -10e-4,0.74855 0.92867,0.109689 c 1.90177,0.224627 5.03312,0.946019 7.1467,1.646436 11.45157,3.794936 20.49951,13.676712 22.76047,24.858016 1.08838,5.382462 0.685,11.968012 -1.05303,17.191584 -2.23676,6.722468 -7.02667,12.739648 -13.14755,16.516208 -3.43653,2.12033 -8.44201,3.68556 -12.51682,3.91405 -0.88829,0.0498 -1.97847,0.11295 -2.42261,0.14032 -0.44415,0.0274 -1.67968,-0.003 -2.74563,-0.0675 z"
       id="path260" />
  </g>
</svg>
